<?xml version="1.0" encoding="utf-8"?>
<!-- Generator: Adobe Illustrator 24.3.0, SVG Export Plug-In . SVG Version: 6.00 Build 0)  -->
<svg version="1.1" id="Layer_1" xmlns="http://www.w3.org/2000/svg" xmlns:xlink="http://www.w3.org/1999/xlink" x="0px" y="0px"
	 viewBox="0 0 258.2 134.5" style="enable-background:new 0 0 258.2 134.5;" xml:space="preserve">
<style type="text/css">
	.st0{fill:none;}
	.st1{fill:url(#SVGID_1_);}
	.st2{fill:url(#SVGID_2_);}
	.st3{fill:url(#SVGID_3_);}
	.st4{fill:url(#SVGID_4_);}
	.st5{fill:#FFFFFF;}
</style>
<rect y="1.1" class="st0" width="105.2" height="113.6"/>
<path d="M109.1,75.2h8.2v39.5h-8.2V75.2z M113.3,69.5c-1.3,0-2.3-0.4-3.2-1.2c-0.8-0.8-1.3-1.8-1.3-3.1c0-1.2,0.4-2.2,1.3-3
	c0.8-0.8,1.9-1.3,3.1-1.3c1.2,0,2.2,0.4,3.1,1.3c0.8,0.8,1.3,1.8,1.3,3c0,1.2-0.4,2.3-1.3,3.1C115.5,69.1,114.5,69.5,113.3,69.5z
	 M163,89.9v24.8h-8.2V92c0-1.8-0.4-3.4-1.3-4.8c-0.8-1.4-2-2.6-3.4-3.4c-1.4-0.9-3-1.3-4.8-1.3c-1.7,0-3.3,0.4-4.8,1.3
	c-1.4,0.8-2.6,2-3.5,3.4c-0.9,1.4-1.3,3.1-1.3,4.8v22.8h-8.2V75.2h8.2v4.2c1.4-1.6,3.1-2.9,5.1-3.9s4.2-1.4,6.5-1.4
	c2.9,0,5.6,0.7,8,2.1c2.4,1.4,4.3,3.3,5.7,5.7C162.3,84.4,163,87,163,89.9z M201.2,75.2h8.2v40.6c0,2.7-0.6,5.2-1.7,7.5
	c-1.1,2.3-2.7,4.3-4.6,5.9c-2,1.7-4.2,3-6.7,3.9c-2.5,0.9-5.1,1.4-7.9,1.4c-2.8,0-5.4-0.6-8-1.8c-2.6-1.2-4.8-2.7-6.8-4.7
	c-1.9-2-3.4-4.3-4.3-6.8l7.5-3.4c0.5,1.6,1.4,3.1,2.5,4.3c1.2,1.3,2.6,2.3,4.1,3c1.6,0.7,3.2,1.1,4.9,1.1c1.6,0,3.2-0.3,4.7-0.8
	c1.5-0.5,2.9-1.2,4.1-2.1c1.2-0.9,2.2-2,2.9-3.3c0.7-1.3,1.1-2.7,1.1-4.2v-6.7c-1.3,2-3,3.6-5,4.9c-2,1.2-4.4,1.8-7.1,1.8
	c-2.8,0-5.4-0.5-7.9-1.6c-2.5-1.1-4.7-2.6-6.5-4.5c-1.9-1.9-3.3-4.1-4.4-6.6c-1.1-2.5-1.6-5.2-1.6-8.1s0.5-5.6,1.6-8.1
	c1.1-2.5,2.5-4.7,4.4-6.6c1.9-1.9,4-3.4,6.5-4.5c2.5-1.1,5.1-1.6,7.9-1.6c2.7,0,5,0.6,7.1,1.9c2,1.2,3.7,2.8,5,4.9V75.2z
	 M189.2,107.8c2.3,0,4.3-0.6,6-1.7c1.7-1.2,3-2.8,4-4.7c0.9-2,1.4-4.1,1.4-6.4c0-2.4-0.5-4.5-1.5-6.4c-0.9-2-2.3-3.5-4-4.7
	c-1.7-1.2-3.7-1.8-6-1.8c-2.2,0-4.2,0.6-6.1,1.7c-1.8,1.2-3.3,2.7-4.3,4.7c-1.1,2-1.6,4.1-1.6,6.5c0,2.4,0.5,4.5,1.6,6.5
	c1.1,2,2.6,3.5,4.4,4.7C185,107.2,187,107.8,189.2,107.8z M249.9,75.2h8.2v39.5h-8.3l-0.3-5.7c-1.2,2-2.7,3.7-4.7,4.9
	c-2,1.2-4.3,1.9-7,1.9c-2.9,0-5.6-0.5-8.2-1.6c-2.6-1.1-4.8-2.6-6.8-4.6c-1.9-2-3.4-4.2-4.5-6.7c-1.1-2.6-1.6-5.3-1.6-8.2
	c0-2.8,0.5-5.5,1.6-7.9c1.1-2.5,2.5-4.7,4.4-6.6c1.9-1.9,4-3.3,6.5-4.4c2.5-1.1,5.1-1.6,7.9-1.6c2.9,0,5.4,0.7,7.6,2
	c2.2,1.3,4,3,5.5,5L249.9,75.2z M237.7,107.8c2.3,0,4.3-0.6,6.1-1.7c1.7-1.2,3.1-2.7,4-4.7c1-2,1.5-4.1,1.5-6.5
	c0-2.4-0.5-4.6-1.5-6.5c-1-2-2.3-3.5-4.1-4.6c-1.7-1.2-3.7-1.7-6-1.7c-2.3,0-4.4,0.6-6.3,1.7c-1.9,1.2-3.4,2.7-4.5,4.7
	c-1.1,2-1.7,4.1-1.7,6.5c0,2.4,0.6,4.6,1.7,6.5c1.2,1.9,2.7,3.5,4.5,4.6C233.4,107.2,235.4,107.8,237.7,107.8z"/>
<linearGradient id="SVGID_1_" gradientUnits="userSpaceOnUse" x1="33.3187" y1="684.9667" x2="100.9345" y2="731.1887" gradientTransform="matrix(1 0 0 1 0 -692)">
	<stop  offset="0" style="stop-color:#000000"/>
	<stop  offset="9.019610e-02" style="stop-color:#000000"/>
	<stop  offset="0.1686" style="stop-color:#424141"/>
	<stop  offset="0.302" style="stop-color:#000000"/>
	<stop  offset="0.4196" style="stop-color:#000000"/>
	<stop  offset="0.5412" style="stop-color:#2E2D2D"/>
	<stop  offset="0.6314" style="stop-color:#000000"/>
	<stop  offset="1" style="stop-color:#000000"/>
</linearGradient>
<path class="st1" d="M64.4,43.7c4.2-11.2,11.6-26,30.1-28.8l8-14.8H21.3v24.9h39.1L49.9,44.2c2.3-1.2,5-1.9,7.9-1.9
	C60.1,42.3,62.3,42.8,64.4,43.7z"/>
<linearGradient id="SVGID_2_" gradientUnits="userSpaceOnUse" x1="17.2442" y1="766.7391" x2="84.3501" y2="816.6024" gradientTransform="matrix(1 0 0 1 0 -692)">
	<stop  offset="0" style="stop-color:#000000"/>
	<stop  offset="9.019610e-02" style="stop-color:#000000"/>
	<stop  offset="0.1686" style="stop-color:#424141"/>
	<stop  offset="0.302" style="stop-color:#000000"/>
	<stop  offset="0.4196" style="stop-color:#000000"/>
	<stop  offset="0.5412" style="stop-color:#2E2D2D"/>
	<stop  offset="0.6314" style="stop-color:#000000"/>
	<stop  offset="1" style="stop-color:#000000"/>
</linearGradient>
<path class="st2" d="M96.9,89.7h-43l8.5-15.8c-1.5,0.4-3,0.6-4.7,0.6c-3.3,0-6.4-1-8.9-2.5c-4.2,10.9-11.6,24.7-29.1,27.8l-8,14.9
	h85.3V89.7L96.9,89.7z"/>
<linearGradient id="SVGID_3_" gradientUnits="userSpaceOnUse" x1="100.3296" y1="695.9785" x2="57.9242" y2="736.7982" gradientTransform="matrix(1 0 0 1 0 -692)">
	<stop  offset="0" style="stop-color:#4D4D4D"/>
	<stop  offset="0.1686" style="stop-color:#BDBDBD"/>
	<stop  offset="0.2706" style="stop-color:#1A1A1A"/>
	<stop  offset="0.3412" style="stop-color:#999999"/>
	<stop  offset="0.4196" style="stop-color:#1A1A1A"/>
	<stop  offset="0.502" style="stop-color:#FFFFFF"/>
	<stop  offset="0.5804" style="stop-color:#4D4D4D"/>
	<stop  offset="0.6706" style="stop-color:#CCCCCC"/>
	<stop  offset="0.749" style="stop-color:#4F4F4F"/>
	<stop  offset="0.8392" style="stop-color:#C2BFBE"/>
	<stop  offset="1" style="stop-color:#4D4D4D"/>
</linearGradient>
<path class="st3" d="M94.9,13.9c-19.7,2.3-27.3,17.8-31.6,29.2c0.4,0.2,0.7,0.2,1,0.4c4.2-11.2,11.6-26,30.1-28.8L94.9,13.9
	L94.9,13.9z"/>
<linearGradient id="SVGID_4_" gradientUnits="userSpaceOnUse" x1="59.1265" y1="758.7325" x2="18.1235" y2="798.0543" gradientTransform="matrix(1 0 0 1 0 -692)">
	<stop  offset="0" style="stop-color:#4D4D4D"/>
	<stop  offset="0.1686" style="stop-color:#BDBDBD"/>
	<stop  offset="0.2706" style="stop-color:#1A1A1A"/>
	<stop  offset="0.3412" style="stop-color:#999999"/>
	<stop  offset="0.4196" style="stop-color:#1A1A1A"/>
	<stop  offset="0.502" style="stop-color:#FFFFFF"/>
	<stop  offset="0.5804" style="stop-color:#4D4D4D"/>
	<stop  offset="0.6706" style="stop-color:#CCCCCC"/>
	<stop  offset="0.749" style="stop-color:#4F4F4F"/>
	<stop  offset="0.8392" style="stop-color:#C2BFBE"/>
	<stop  offset="1" style="stop-color:#4D4D4D"/>
</linearGradient>
<path class="st4" d="M19.2,100.7c18.6-2.5,26.1-16.9,30.5-28.1c-0.3-0.2-0.6-0.4-1-0.6c-4.2,10.9-11.6,24.7-29.1,27.8L19.2,100.7
	L19.2,100.7z"/>
<path d="M74.6,51.5l19.9-36.7c-17.6,2.8-25.2,16.3-29.6,27.3c-2.2-0.9-4.5-1.4-7-1.4c-10,0-18.1,7.9-18.1,17.6
	c0,1.3,0.2,2.5,0.4,3.7L19.7,99.9l0,0C36.5,97,44,84,48.3,73.3c2.8,1.7,6.1,2.7,9.6,2.7c10,0,18.1-7.9,18.1-17.6
	C76,55.9,75.4,53.5,74.6,51.5z"/>
<path class="st5" d="M73.8,58.2c0-8.5-7.1-15.5-15.9-15.5S42,49.7,42,58.2s7.1,15.5,15.9,15.5S73.8,66.8,73.8,58.2z"/>
</svg>
